<?xml version="1.0" encoding="utf-8"?>
<!-- Generator: Adobe Illustrator 17.0.0, SVG Export Plug-In . SVG Version: 6.00 Build 0)  -->
<!DOCTYPE svg PUBLIC "-//W3C//DTD SVG 1.1//EN" "http://www.w3.org/Graphics/SVG/1.1/DTD/svg11.dtd">
<svg version="1.1" id="Capa_1" xmlns="http://www.w3.org/2000/svg" xmlns:xlink="http://www.w3.org/1999/xlink" x="0px" y="0px"
	 width="23.05px" height="20.058px" viewBox="18 62 23.05 20.058" enable-background="new 18 62 23.05 20.058" xml:space="preserve"
	>
<g>
	<path id="Chevron_Right" fill="#00CEC9" stroke="#00CEC9" stroke-width="0.5012" stroke-miterlimit="10" d="M30.259,82.059
		l9.26-9.302c0.405-0.408,0.405-1.071,0-1.479c-0.406-0.408-1.065-0.408-1.47,0l-8.525,8.563l-8.525-8.564
		c-0.405-0.408-1.064-0.408-1.469,0c-0.405,0.409-0.405,1.071,0,1.479l9.26,9.302C29.189,82.461,29.858,82.461,30.259,82.059z"/>
</g>
<g>
	<path id="Chevron_Right_1_" fill="#00CEC9" stroke="#00CEC9" stroke-width="0.5012" stroke-miterlimit="10" d="M30.259,73.555
		l9.26-9.302c0.405-0.408,0.405-1.071,0-1.479c-0.406-0.408-1.065-0.408-1.47,0l-8.525,8.563l-8.525-8.564
		c-0.405-0.408-1.064-0.408-1.469,0c-0.405,0.409-0.405,1.071,0,1.479l9.26,9.302C29.189,73.957,29.858,73.957,30.259,73.555z"/>
</g>
</svg>
