<?xml version="1.0" encoding="utf-8"?>
<!-- Generator: Adobe Illustrator 17.0.0, SVG Export Plug-In . SVG Version: 6.00 Build 0)  -->
<!DOCTYPE svg PUBLIC "-//W3C//DTD SVG 1.1//EN" "http://www.w3.org/Graphics/SVG/1.1/DTD/svg11.dtd">
<svg version="1.1" id="圖層_1" xmlns="http://www.w3.org/2000/svg" xmlns:xlink="http://www.w3.org/1999/xlink" x="0px" y="0px"
	 width="468px" height="285.633px" viewBox="0 0 468 285.633" enable-background="new 0 0 468 285.633" xml:space="preserve">
<ellipse transform="matrix(0.9957 0.0923 -0.0923 0.9957 14.0848 -4.8305)" fill="#28160A" stroke="#FFF100" stroke-width="2.9824" stroke-miterlimit="10" cx="59.245" cy="149.798" rx="32.733" ry="26.661"/>
<ellipse transform="matrix(0.9999 0.0147 -0.0147 0.9999 2.4316 -6.2124)" fill="#28160A" stroke="#FFF100" stroke-width="2.9452" stroke-miterlimit="10" cx="423.467" cy="162.169" rx="32.395" ry="26.271"/>
<path fill="#3D7966" d="M216.482,193.621c-3.521-1.35-70.356,4.016-71.725,3.342c-1.369-0.674-8.566-15.932-11.269-14.782
	c-2.703,1.15,1.696,31.809,3.713,32.939c2.017,1.131,96.396,20.873,100.6,20.828C242.006,235.903,226.65,197.52,216.482,193.621z"/>
<path fill="#2F5E4F" d="M136.621,214.948l5.589,1.846c0,0,2.193-24.508-1.425-33.705c-3.617-9.197-7.17-7.356-8.462-3.349
	C131.031,183.747,134.319,209.324,136.621,214.948z"/>
<g>
	<g>
		<g>
			<path fill="#CB844A" d="M344.062,194.131l79.344-79.766l-1.205-0.889l-3.478-2.567l-81.129,79.244
				C340.03,191.032,342.271,192.368,344.062,194.131z"/>
			<path fill="#B5713E" d="M344.062,194.131l79.344-79.766l-1.205-0.889c-27.096,26.078-54.191,52.163-81.287,78.248
				C342.06,192.412,343.126,193.209,344.062,194.131z"/>
		</g>
		<g>
			<path fill="#543216" d="M421.178,131.519c0.036-1.698,0.035-3.395,0.016-5.093c-0.037-3.269-0.095-6.515,0.554-9.735
				c0.065-0.323,0.495-0.205,0.528,0.071c0.394,3.274,0.694,6.552,0.964,9.839c0.135,1.637,0.268,3.275,0.314,4.917
				c0.044,1.567-0.002,3.114-0.916,4.451c-0.187,0.274-0.663,0.35-0.832,0C421.113,134.534,421.145,133.079,421.178,131.519z"/>
			<path fill="#543216" d="M416.216,217.491c0.159-0.881,0.632-1.743,1.016-2.545c0.4-0.835,0.822-1.659,1.203-2.503
				c0.772-1.709,1.475-3.459,2.024-5.253c0.543-1.776,1.011-3.568,1.338-5.397c0.082-0.456,0.152-0.914,0.216-1.372
				c0.019-1.265,0.039-2.53,0.086-3.795c0.128-3.448-0.076-6.881-0.054-10.327c0.006-0.92,1.332-1.061,1.443-0.121
				c0.406,3.446,0.43,6.948,0.611,10.412c0.077,1.477,0.089,2.952,0.066,4.429c0.055,0.382,0.111,0.765,0.164,1.146
				c0.289,2.088,0.68,4.162,1.169,6.212c0.472,1.98,1.033,3.931,1.655,5.869c0.643,2.006,1.511,3.991,1.931,6.055
				c0.173,0.85-1.16,1.296-1.589,0.577c-1.07-1.796-1.625-3.952-2.152-5.965c-0.443-1.693-0.806-3.414-1.108-5.14
				c-0.055,1.618-0.251,3.242-0.586,4.819c-0.4,1.889-0.929,3.807-1.929,5.47c-0.263,0.439-1.11,0.434-1.103-0.202
				c0.019-1.894,0.519-3.696,0.921-5.535c0.411-1.88,0.739-3.742,0.901-5.661c0.043-0.514,0.072-1.028,0.096-1.543
				c-0.007-0.004-0.011-0.011-0.017-0.016c-0.051,0.226-0.099,0.453-0.156,0.677c-0.483,1.88-1.085,3.739-1.859,5.52
				c-0.384,0.884-0.79,1.764-1.276,2.597c-0.487,0.834-1.049,1.763-1.828,2.353C416.86,218.657,416.102,218.124,416.216,217.491z"/>
			<circle fill="#C63C3A" cx="421.933" cy="112.24" r="6.581"/>
			<circle fill="#C63C3A" cx="423.114" cy="195.932" r="3.284"/>
			<circle fill="#C63C3A" cx="423.259" cy="205.638" r="3.284"/>
			<g>
				<path fill="#855224" d="M417.216,132.851c0.115,1.892,0.23,3.784,0.345,5.677c2.406-0.093,6.652,0.583,8.816-0.486
					c1.624-0.802,2.033-3.766,2.285-5.346C427.737,132.605,417.216,132.84,417.216,132.851z"/>
				<path fill="#855224" d="M428.662,190.616c-0.115-1.892-0.23-3.784-0.345-5.677c-2.406,0.093-6.652-0.583-8.816,0.486
					c-1.624,0.802-2.033,3.766-2.285,5.346C418.141,190.862,428.662,190.627,428.662,190.616z"/>
				<g>
					<path fill="#C63C3A" d="M391.892,162.383c0.057,1.936,0.337,3.865,0.832,5.73c0.136,0.516,0.294,1.033,0.466,1.542
						c0.28,0.81,0.595,1.606,0.961,2.388c0.473,1.004,1.011,1.979,1.613,2.904c0.143,0.215,0.28,0.43,0.437,0.638
						c0.351,0.524,0.739,1.033,1.14,1.528c1.678,2.087,3.686,3.915,5.916,5.436c0.416,0.287,0.839,0.559,1.276,0.817
						c0.839,0.524,1.707,0.997,2.596,1.42c1.047,0.509,2.116,0.954,3.206,1.334c6.942,2.402,14.615,2.309,21.707,0.402
						c1.312-0.351,2.61-0.767,3.887-1.255c1.492-0.559,2.947-1.212,4.353-1.958c0.99-0.524,1.951-1.097,2.883-1.714
						c1.778-1.183,3.435-2.524,4.927-4.052c0.007,0,0.007,0,0.007,0c0.222-0.237,0.445-0.466,0.66-0.703
						c0.258-0.287,0.516-0.581,0.767-0.875c1.456-1.75,2.696-3.708,3.643-5.78c0.215-0.459,0.409-0.925,0.595-1.391
						c0.724-1.879,1.219-3.837,1.434-5.83c0.043-0.438,0.079-0.875,0.1-1.312c0.036-0.896,0.021-1.8-0.057-2.696
						c-0.093-1.076-0.28-2.137-0.545-3.17c-0.108-0.452-0.237-0.896-0.387-1.341c-0.66-2.037-1.628-3.973-2.847-5.758
						c-0.337-0.502-0.696-0.99-1.068-1.463c-1.628-2.072-3.593-3.915-5.773-5.45c-0.825-0.588-1.685-1.126-2.574-1.621
						c-0.889-0.495-1.807-0.947-2.739-1.341c-4.059-1.714-8.441-2.56-12.829-2.739c-2.998-0.122-6.074-0.029-9.107,0.351
						c-4.489,0.574-8.857,1.771-12.7,3.844c-0.696,0.38-1.377,0.782-2.03,1.219c-2.202,1.449-4.181,3.241-5.837,5.414
						c-0.344,0.445-0.674,0.904-0.975,1.384c-0.531,0.789-1.011,1.628-1.449,2.517c-0.48,0.968-0.889,1.965-1.226,2.983
						c-0.165,0.481-0.308,0.968-0.437,1.463c-0.488,1.836-0.76,3.722-0.818,5.622C391.878,161.379,391.878,161.881,391.892,162.383z
						"/>
					<g opacity="0.6">
						<path fill="#573618" d="M402.642,141.486c4.324,0.215,8.656,0.359,12.987,0.516c2.854,0.108,5.694,0.208,8.541,0.273
							c2.567,0.05,5.135,0.072,7.709,0.021c0.81-0.014,1.613-0.036,2.424-0.065c1.04-0.036,2.08-0.079,3.119-0.129
							c2.402-0.1,4.797-0.222,7.2-0.33c-0.825-0.588-1.685-1.126-2.574-1.621c-2.675,0.065-5.35,0.143-8.025,0.215
							c-0.617,0.014-1.226,0.029-1.843,0.043c-0.818,0.021-1.642,0.036-2.46,0.057c-2.331,0.065-4.654,0.136-6.978,0.186
							c-3.084,0.065-6.167,0.093-9.258,0.014c-2.94-0.079-5.88-0.215-8.813-0.402C403.976,140.647,403.294,141.048,402.642,141.486z
							"/>
						<path fill="#573618" d="M395.829,148.284c0.416,0.021,0.839,0.05,1.255,0.079c6.174,0.394,12.356,0.595,18.545,0.825
							c4.123,0.151,8.233,0.301,12.342,0.316c2.108,0.014,4.217-0.007,6.332-0.086c1.04-0.036,2.072-0.079,3.112-0.129
							c2.61-0.108,5.221-0.244,7.831-0.359c2.072-0.093,4.145-0.179,6.217-0.244c-0.337-0.502-0.696-0.99-1.068-1.463
							c-2.18,0-4.36,0.036-6.54,0.079c-2.51,0.05-5.02,0.122-7.53,0.186c-1.384,0.036-2.761,0.079-4.145,0.108
							c-1.606,0.036-3.213,0.079-4.819,0.122c-4.625,0.129-9.244,0.258-13.876,0.136c-5.565-0.143-11.13-0.516-16.68-0.954
							C396.46,147.345,396.13,147.804,395.829,148.284z"/>
						<path fill="#573618" d="M392.717,155.247c1.456,0.1,2.911,0.201,4.367,0.294c6.174,0.402,12.356,0.602,18.545,0.832
							c4.36,0.158,8.699,0.316,13.052,0.316c1.872,0.007,3.743-0.022,5.622-0.093c1.893-0.072,3.793-0.151,5.687-0.244
							c3.098-0.136,6.203-0.294,9.301-0.409c1.14-0.043,2.273-0.079,3.414-0.107c0.66-0.014,1.327-0.029,1.994-0.05
							c-0.108-0.452-0.237-0.896-0.387-1.341c-1.183-0.029-2.367-0.036-3.55-0.036c-0.71,0-1.413,0-2.123,0.007
							c-3.019,0.021-6.038,0.093-9.057,0.172c-2.467,0.065-4.934,0.129-7.401,0.186c-1.14,0.029-2.28,0.057-3.421,0.093
							c-5.084,0.143-10.176,0.308-15.275,0.172c-6.784-0.179-13.561-0.688-20.33-1.255
							C392.989,154.265,392.846,154.752,392.717,155.247z"/>
						<path fill="#573618" d="M391.892,162.383c1.728,0.115,3.464,0.229,5.192,0.344c6.174,0.402,12.356,0.595,18.545,0.825
							c3.586,0.136,7.157,0.265,10.735,0.308c2.639,0.036,5.285,0.021,7.939-0.079c1.972-0.072,3.937-0.158,5.902-0.251
							c3.579-0.165,7.15-0.344,10.728-0.459c0.588-0.021,1.183-0.036,1.771-0.05c0.832-0.022,1.664-0.036,2.496-0.057
							c0.043-0.438,0.079-0.875,0.1-1.312c-1.513-0.043-3.019-0.057-4.532-0.057h-0.007c-3.471,0-6.934,0.072-10.398,0.158
							c-2.732,0.072-5.457,0.151-8.182,0.208c-1.635,0.036-3.27,0.079-4.905,0.129c-4.59,0.129-9.186,0.251-13.79,0.129
							c-7.207-0.186-14.4-0.746-21.585-1.348C391.878,161.379,391.878,161.881,391.892,162.383z"/>
						<path fill="#573618" d="M392.724,168.112c0.136,0.516,0.294,1.033,0.466,1.542c1.298,0.086,2.596,0.172,3.894,0.258
							c6.174,0.402,12.356,0.595,18.545,0.825c1.219,0.043,2.431,0.093,3.65,0.129c5.013,0.172,10.004,0.287,15.024,0.1
							c1.169-0.043,2.338-0.093,3.507-0.143c4.195-0.186,8.39-0.409,12.585-0.552h0.007c0.767-0.029,1.535-0.05,2.302-0.072
							c0.158-0.007,0.308-0.007,0.466-0.014c0.215-0.459,0.409-0.925,0.595-1.391c-1.004-0.014-2.001-0.022-3.005-0.022h-0.05
							c-3.994,0-7.989,0.093-11.983,0.201c-2.18,0.057-4.367,0.122-6.547,0.172c-3.6,0.079-7.2,0.208-10.8,0.265
							c-2.632,0.05-5.264,0.064-7.895-0.007C406.557,169.217,399.637,168.693,392.724,168.112z"/>
						<path fill="#573618" d="M396.202,175.585c0.351,0.524,0.739,1.033,1.14,1.528c6.088,0.387,12.184,0.581,18.287,0.81
							c5.013,0.186,10.004,0.366,15.009,0.308c1.219-0.007,2.438-0.036,3.665-0.079c4.217-0.151,8.426-0.38,12.643-0.559
							c0.38-0.021,0.767-0.036,1.147-0.05c0.007,0,0.007,0,0.007,0c0.222-0.237,0.445-0.466,0.66-0.703
							c0.258-0.287,0.516-0.581,0.767-0.875c-0.495,0-0.99,0-1.484,0.007c-4.934,0.05-9.868,0.215-14.809,0.33
							c-0.351,0.014-0.703,0.022-1.054,0.029c-6.232,0.136-12.456,0.423-18.695,0.258
							C407.719,176.438,401.953,176.044,396.202,175.585z"/>
						<path fill="#573618" d="M404.535,183.365c0.839,0.524,1.707,0.997,2.596,1.42c2.833,0.122,5.665,0.215,8.498,0.323
							c6.239,0.229,12.435,0.452,18.674,0.222c0.545-0.022,1.083-0.043,1.628-0.065c1.492-0.559,2.947-1.212,4.353-1.958
							c-2.703,0.065-5.4,0.143-8.103,0.201c-6.232,0.143-12.456,0.43-18.695,0.265C410.501,183.695,407.518,183.552,404.535,183.365
							z"/>
					</g>
				</g>
			</g>
		</g>
	</g>
</g>
<path opacity="0.2" fill="#C9CACA" d="M400.601,257.372c0,8.227-41.345,14.896-92.362,14.896c-33.869,0-63.488-2.938-79.553-7.323
	c-16.066,4.385-45.684,7.323-79.563,7.323c-51.016,0-92.362-6.668-92.362-14.896s41.345-14.896,92.362-14.896
	c33.879,0,63.497,2.938,79.563,7.323c16.065-4.385,45.684-7.323,79.553-7.323C359.256,242.476,400.601,249.144,400.601,257.372z"/>
<path fill="#28160A" d="M333.576,55.173c-5.639-7.427-18.078-12.97-33.837-15.697c-15.76-2.727-48.963-2.646-63.035,34.073
	c-12.728,33.211-19.719,69.833-16.75,75.1c2.97,5.267,30.443,26.561,59.224,29.781c28.781,3.22,52.886-11.74,54.886-18.24
	C336.064,153.69,350.448,77.393,333.576,55.173z"/>
<path fill="#28160A" d="M283.649,40.775c-8.316-0.438-17.178,0.349-24.658,4.246c-7.163,3.732-12.824,9.763-17.221,16.449
	c-4.835,7.352-8.461,15.517-11.735,23.661c-3.476,8.648-6.339,17.535-8.568,26.585c-2.462,9.996-4.173,20.177-4.88,30.45
	c-0.01,0.148,0.208,0.14,0.226,0c2.292-17.566,6.195-34.793,12.384-51.411c3.02-8.11,6.465-16.164,10.698-23.723
	c4.048-7.227,9.154-14.016,15.992-18.819c3.81-2.676,8.032-4.535,12.577-5.543c5.017-1.113,10.097-1.05,15.183-1.511
	C283.893,41.137,283.899,40.789,283.649,40.775z"/>
<path fill="#CC9C5E" d="M376.946,244.409c-0.605,0-3.858-1.067-8.147-2.524c-1.252-0.431-2.606-0.893-4.001-1.365
	c-1.098-0.38-2.226-0.77-3.365-1.159c-0.328-0.113-0.657-0.226-0.985-0.339c-7.5-2.565-15.195-5.14-17.534-5.387
	c-4.791-0.513-37.962,12.651-41.892,11.799c-3.94-0.862-12.999-21.208,0-33.007c4.125-3.745,31.293-12.138,39.665-11.799
	c6.269,0.256,25.096,13.533,34.73,20.715c0.123,0.082,0.246,0.174,0.369,0.267c0.349,0.256,0.688,0.513,1.006,0.749
	c2.483,1.867,4.124,3.15,4.422,3.406c0.585,0.513,3.293-0.954,6.443-2.719c0,0,0.01,0,0.031-0.01
	c4.258-2.391,9.306-5.315,10.968-4.627C401.57,219.61,378.824,244.409,376.946,244.409z"/>
<path fill="#FFFFFF" d="M376.946,244.409c-0.605,0-3.858-1.067-8.147-2.524c-1.252-0.431-2.606-0.893-4.001-1.365
	c-1.098-0.38-2.226-0.77-3.365-1.159c-0.328-0.113-0.657-0.226-0.985-0.339c-0.133-0.328-0.195-0.677-0.195-1.047
	c0-1.652,1.334-2.996,2.986-2.996c0.759,0,1.436,0.277,1.96,0.749c-0.492-0.533-0.811-1.252-0.811-2.052
	c0-1.652,1.334-2.996,2.986-2.996c0.605,0,1.17,0.185,1.642,0.492c-0.523-0.482-0.893-1.159-0.964-1.929
	c-0.154-1.642,1.047-3.099,2.698-3.263c0.534-0.051,1.047,0.041,1.508,0.257c-0.523-0.544-0.852-1.262-0.852-2.083
	c0-1.652,1.344-2.996,2.996-2.996c0.359,0,0.698,0.062,1.016,0.185c0.144,0.041,0.277,0.103,0.4,0.174
	c0.38,0.205,0.708,0.492,0.975,0.841c2.483,1.867,4.124,3.15,4.422,3.406c0.585,0.513,3.293-0.954,6.443-2.719
	c0,0,0.01,0,0.031-0.01c4.258-2.391,9.306-5.315,10.968-4.627C401.57,219.61,378.824,244.409,376.946,244.409z"/>
<path fill="#28160A" d="M376.946,244.409c-0.605,0-3.858-1.067-8.147-2.524l-0.01-0.01c2.801,0.944,21.491-15.339,22.983-18.827
	c0.779-1.822-3.663-0.123-4.083-0.01c4.258-2.391,9.306-5.315,10.968-4.627C401.57,219.61,378.824,244.409,376.946,244.409z"/>
<path fill="#28160A" d="M385.776,223.57c-1.519,0.456-4.13,2.38-4.906,4.665c-0.826,2.43-0.305,4.723,0.691,7.003
	c0.063,0.143,0.316,0.074,0.299-0.081c-0.487-4.415,0.647-8.071,4.038-10.989C386.228,223.885,386.178,223.45,385.776,223.57z"/>
<path fill="#CC9C5E" d="M376.555,252.689c-0.618,0-3.941-1.09-8.323-2.579c-1.279-0.44-2.662-0.912-4.088-1.394
	c-1.122-0.388-2.275-0.786-3.438-1.185c-0.335-0.115-0.671-0.231-1.006-0.346c-7.662-2.621-15.524-5.252-17.914-5.503
	c-4.895-0.524-38.784,12.925-42.799,12.055c-4.025-0.88-13.281-21.667,0-33.721c4.214-3.826,31.971-12.401,40.524-12.055
	c6.405,0.262,25.639,13.826,35.482,21.164c0.126,0.084,0.252,0.178,0.377,0.273c0.356,0.262,0.702,0.524,1.027,0.765
	c2.537,1.908,4.214,3.218,4.518,3.48c0.598,0.524,3.365-0.975,6.583-2.778c0,0,0.011,0,0.031-0.011
	c4.35-2.442,9.507-5.43,11.205-4.728C401.713,227.354,378.473,252.689,376.555,252.689z"/>
<path fill="#FFFFFF" d="M376.555,252.689c-0.618,0-3.941-1.09-8.323-2.579c-1.279-0.44-2.662-0.912-4.088-1.394
	c-1.122-0.388-2.275-0.786-3.438-1.185c-0.335-0.115-0.671-0.231-1.006-0.346c-0.136-0.335-0.199-0.692-0.199-1.069
	c0-1.688,1.363-3.061,3.05-3.061c0.776,0,1.468,0.283,2.002,0.765c-0.503-0.545-0.828-1.279-0.828-2.096
	c0-1.688,1.363-3.061,3.05-3.061c0.618,0,1.195,0.189,1.677,0.503c-0.535-0.493-0.912-1.184-0.985-1.971
	c-0.157-1.677,1.069-3.166,2.757-3.333c0.545-0.052,1.069,0.042,1.541,0.262c-0.535-0.555-0.87-1.289-0.87-2.128
	c0-1.688,1.373-3.061,3.061-3.061c0.367,0,0.713,0.063,1.038,0.189c0.147,0.042,0.283,0.105,0.409,0.178
	c0.388,0.21,0.723,0.503,0.996,0.86c2.537,1.908,4.214,3.218,4.518,3.48c0.598,0.524,3.365-0.975,6.583-2.778
	c0,0,0.011,0,0.031-0.011c4.35-2.442,9.507-5.43,11.205-4.728C401.713,227.354,378.473,252.689,376.555,252.689z"/>
<path fill="#28160A" d="M376.555,252.689c-0.618,0-3.941-1.09-8.323-2.579l-0.01-0.01c2.862,0.964,21.957-15.671,23.48-19.235
	c0.796-1.862-3.742-0.126-4.172-0.011c4.35-2.442,9.507-5.43,11.205-4.728C401.713,227.354,378.473,252.689,376.555,252.689z"/>
<path fill="#28160A" d="M385.577,231.399c-1.552,0.466-4.22,2.432-5.013,4.766c-0.843,2.482-0.312,4.825,0.706,7.154
	c0.064,0.146,0.323,0.075,0.305-0.083c-0.497-4.511,0.661-8.246,4.126-11.227C386.038,231.721,385.987,231.276,385.577,231.399z"/>
<path fill="#C57D45" d="M380.854,233.403c-11.132-8.936-22.42-17.993-35.328-24.284c-5.96-2.905-11.856-1.5-18.074-0.116
	c-7.102,1.581-14.068,3.785-20.647,6.907c-0.046,0.022-0.013,0.1,0.035,0.082c6.364-2.308,12.794-4.427,19.407-5.907
	c3.5-0.783,7.109-1.556,10.69-1.838c3.732-0.293,6.827,1.041,10.058,2.759c11.987,6.372,23.097,14.103,33.642,22.571
	C381.14,233.983,381.364,233.812,380.854,233.403z"/>
<path fill="#EC7271" d="M274.356,156.599c-16.428,11.181-31.544,73.048-24.552,88.313c6.202,13.54,33.203,14.086,46.034,10.744
	c13.583-3.538,25.638-6.944,28.258-8.779c1.882-1.318-6.027-30.649,7.618-45.225c0,0-9.846,1.331-14.674,3.494
	c-1.161,0.52-6.4-27.487-12.293-40.86C299.119,151.51,285.194,149.223,274.356,156.599z"/>
<path fill="#A8495E" d="M274.356,165.214c-4.874,0-4.881,7.574,0,7.574C279.23,172.788,279.238,165.214,274.356,165.214z"/>
<path fill="#A8495E" d="M295.742,205.247c-4.874,0-4.881,7.574,0,7.574C300.616,212.821,300.624,205.247,295.742,205.247z"/>
<path fill="#A8495E" d="M312.765,216.827c-4.874,0-4.882,7.574,0,7.574C317.639,224.401,317.647,216.827,312.765,216.827z"/>
<path fill="#A8495E" d="M280.635,245.061c-4.874,0-4.881,7.574,0,7.574C285.509,252.635,285.516,245.061,280.635,245.061z"/>
<path fill="#A8495E" d="M312.668,234.789c-4.874,0-4.881,7.574,0,7.574C317.542,242.363,317.55,234.789,312.668,234.789z"/>
<path fill="#A8495E" d="M290.607,226.235c-4.874,0-4.882,7.574,0,7.574C295.481,233.809,295.489,226.235,290.607,226.235z"/>
<path fill="#A8495E" d="M259.037,236.062c-4.874,0-4.881,7.574,0,7.574C263.91,243.636,263.918,236.062,259.037,236.062z"/>
<path fill="#A8495E" d="M262.695,181.199c-4.874,0-4.881,7.574,0,7.574C267.568,188.773,267.576,181.199,262.695,181.199z"/>
<path fill="#A8495E" d="M289.884,179.908c-4.874,0-4.881,7.574,0,7.574C294.758,187.482,294.766,179.908,289.884,179.908z"/>
<path fill="#A8495E" d="M258.103,202.426c-4.874,0-4.881,7.574,0,7.574C262.977,209.999,262.985,202.426,258.103,202.426z"/>
<path fill="#A8495E" d="M305.924,188.004c-4.874,0-4.881,7.574,0,7.574C310.798,195.578,310.806,188.004,305.924,188.004z"/>
<path fill="#A8495E" d="M290.607,155.735c-4.874,0-4.882,7.574,0,7.574C295.481,163.309,295.489,155.735,290.607,155.735z"/>
<path fill="#A8495E" d="M278.562,193.91c-4.874,0-4.881,7.574,0,7.574C283.436,201.484,283.444,193.91,278.562,193.91z"/>
<path fill="#A8495E" d="M270.698,217.626c-4.874,0-4.882,7.574,0,7.574C275.572,225.2,275.58,217.626,270.698,217.626z"/>
<path fill="#A8495E" d="M302.777,166.489c-4.874,0-4.882,7.574,0,7.574C307.65,174.063,307.658,166.489,302.777,166.489z"/>
<path fill="#A8495E" d="M320.915,209.051c-8.248,2.948-15.961,7.738-21.888,14.187c-0.146,0.159,0.083,0.391,0.237,0.237
	c6.266-6.232,14.491-9.341,21.871-13.901C321.402,209.411,321.233,208.938,320.915,209.051z"/>
<path fill="#A8495E" d="M315.698,206.601c-2.735,1.407-4.766,4.149-6.263,6.751c-0.083,0.144,0.125,0.258,0.219,0.128
	c1.82-2.519,4.158-4.332,6.376-6.448C316.263,206.81,315.968,206.463,315.698,206.601z"/>
<path fill="#CC9C5E" d="M279.179,161.281c-6.675,4.014-6.433,23.562,16.032,33.909c16.462,7.582,42.917,5.527,45.295,4.96
	c0.924-0.221,6.369,2.163,7.389,1.851c1.02-0.312,1.15-1.046,1.533-1.386c0.383-0.34,1.944-0.532,2.337-1.06
	s0.441-1.438,0.639-1.747c0.199-0.309,1.059-0.173,1.866-0.77c0.807-0.597,0.855-1.507,1.099-1.814
	c0.244-0.307,1.514-0.149,2.074-1.261s-5.625-5.041-5.872-5.556c-0.247-0.515,3.528-1.14,4.189-3.296
	c0.66-2.156-0.808-2.005-3.46-1.048c-2.652,0.957-7.726,1.97-8.808,2.599c-1.083,0.628-29.607-4.695-34.117-7.486
	C304.864,176.386,288.227,155.84,279.179,161.281z"/>
<path fill="#EC7271" d="M253.911,105.174c0,0-12.598-26.664,6.618-47.362c16.648-17.932,49.047-18.86,70.477-4.98
	c0,0-39.938-8.925-58.455,8.026C250.136,81.378,253.911,105.174,253.911,105.174z"/>
<path fill="#CC9C5E" d="M283.915,149.249c0.441,2.147,2.48,6.78,5.001,10.828c2.619,4.195,5.759,7.753,8.197,7.252
	c2.355-0.476,2.938-4.035,2.912-7.523c-0.016-3.589-0.664-7.097-0.664-7.097L283.915,149.249z"/>
<path fill="#C57D45" d="M283.915,149.249c0.441,2.147,2.48,6.78,5.001,10.828c3.75,0.819,7.628,0.857,11.108-0.271
	c-0.016-3.589-0.664-7.097-0.664-7.097L283.915,149.249z"/>
<path fill="#CC9C5E" d="M275.902,56.299c-25.574,17.398-28.687,64.736-17.012,81.613c11.675,16.877,60.835,32.357,80.918,11.664
	c5.659-5.831,3.704-20.267,5.27-24.512c1.565-4.245,21.168-42.19-2.071-61.687C320.497,44.494,289.106,47.317,275.902,56.299z"/>
<path fill="#C57D45" d="M322.509,128.032c-2.798-0.734-3.549-3.568-2.98-6.847c0.691-3.981,3.634-7.558,6.088-10.637
	c0.159-0.204,0.321,0.024,0.18,0.235c-2.475,3.704-2.364,8.038-0.942,10.489c0.789,1.351,1.902,2.491,1.729,4.173
	C326.385,127.446,324.556,128.569,322.509,128.032z"/>
<path fill="#28160A" d="M332.236,130.268c-2.918,2.855-6.715,4.92-10.942,4.436c-4.218-0.482-7.028-3.469-9.171-6.885
	c-0.064-0.101-0.24-0.016-0.191,0.096c1.748,3.957,4.845,8.037,9.432,8.656c4.694,0.633,9.47-2.842,11.134-6.067
	C332.659,130.192,332.49,130.019,332.236,130.268z"/>
<ellipse transform="matrix(0.9881 0.1537 -0.1537 0.9881 20.7571 -41.8923)" fill="#C57D45" cx="281.277" cy="113.281" rx="5.767" ry="5.004"/>
<path fill="#C57D45" d="M344.163,134.089c-0.38-0.122-0.751-0.296-1.117-0.513c-2.428-1.459-3.366-4.337-2.105-6.449
	c0.839-1.386,2.431-2.094,4.111-1.972C344.43,126.914,344.381,130.292,344.163,134.089z"/>
<path fill="#28160A" d="M308.326,90.913c-6.956-3.05-12.8,1.568-14.275,4.406c-0.526,1.013,0.115,1.355,0.552,1.115
	c2.165-1.194,5.663-2.911,12.927-1.505C309.64,95.337,310.946,92.062,308.326,90.913z"/>
<path fill="#28160A" d="M337.975,97.784c7.685,1.078,9.72,7.554,9.505,9.755c-0.11,1.125-0.807,1.078-1.047,0.647
	c-1.193-2.137-2.917-4.832-9.893-6.612C334.479,101.048,335.171,97.391,337.975,97.784z"/>
<ellipse transform="matrix(0.9906 0.1366 -0.1366 0.9906 18.6782 -40.4148)" fill="#28160A" cx="303.753" cy="115.86" rx="4.961" ry="6.314"/>
<path fill="#28160A" d="M302.214,110.08c-2.615,0.612-5.572-1.38-6.724-3.621c-0.044-0.086-0.113-0.043-0.104,0.043
	c0.408,4.195,5.111,5.814,7.128,4.708L302.214,110.08z"/>
<path fill="#28160A" d="M302.097,111.206c-1.784,1.415-4.774,0.958-6.468-0.344c-0.065-0.05-0.102,0.008-0.065,0.071
	c1.831,3.07,6.025,2.61,7.172,1.032L302.097,111.206z"/>
<path fill="#28160A" d="M331.22,120.369c-0.766,3.204,0.523,6.245,2.879,6.792c2.356,0.547,4.886-1.606,5.652-4.81
	c0.766-3.204-0.523-6.245-2.879-6.792C334.516,115.012,331.985,117.166,331.22,120.369z"/>
<path fill="#28160A" d="M338.686,116.756c1.944,1.386,5.041,0.584,6.738-1.022c0.065-0.062,0.107-0.001,0.071,0.072
	c-1.74,3.572-6.147,3.48-7.434,1.851L338.686,116.756z"/>
<path fill="#28160A" d="M338.405,117.787c0.992,1.827,3.602,2.39,5.431,1.788c0.07-0.023,0.081,0.04,0.029,0.083
	c-2.533,2.118-5.825,0.356-6.239-1.408L338.405,117.787z"/>
<path fill="#28160A" d="M257.354,107.157c6.854,3.021,12.657-14.926,12.657-14.926s18.16,6.938,29.163-16.585
	c0,0,16.733,21.067,55.719,21.228c4.763,0.02,5.466-18.883-3.562-31.527c-8.405-11.771-26.954-19.86-51.686-17.411
	c-24.732,2.448-36.334,15.218-41.202,24.38C253.575,81.478,249.736,103.799,257.354,107.157z"/>
<path fill="#28160A" d="M299.211,74.133c-0.71,6.847-4.745,13.536-10.716,17.024c-3.167,1.85-6.826,2.789-10.488,2.805
	c-3.933,0.017-7.153-1.205-10.718-2.684c-0.267-0.111-0.377,0.287-0.182,0.432c6.133,4.557,15.869,3.946,22.161,0.132
	c6.262-3.795,10.002-10.447,10.128-17.709C299.398,74.012,299.223,74.017,299.211,74.133z"/>
<path fill="#28160A" d="M339.912,97.174c-8.946-1.476-17.448-3.785-25.276-8.529c-7.151-4.334-13.65-10.342-18.146-17.428
	c-0.113-0.178-0.393-0.017-0.284,0.166c9.102,15.215,25.976,24.938,43.662,26.107C340.048,97.502,340.092,97.204,339.912,97.174z"/>
<path fill="#CC9C5E" d="M259.922,107.578c0,0-10.198-13.925-18.048-10.083c-7.85,3.842-8.118,19.972,3.694,27.784
	c6.995,4.627,12.062,1.864,12.062,1.864L259.922,107.578z"/>
<path fill="#C57D45" d="M241.695,102.963c-0.143-0.052-0.238,0.154-0.097,0.219c8.33,3.848,10.062,13.008,12.117,20.977
	c0.065,0.252,0.48,0.194,0.499-0.056C254.908,115.144,250.346,106.114,241.695,102.963z"/>
<path fill="#FBD7B5" d="M144.416,175.03c0,0-6.995-1.537-9.688-1.125c-2.693,0.412-13.612,6.455-13.564,8.579
	c0.048,2.124,9.074-2.247,9.074-2.247s-8.325,5.272-7.712,7.111c0.613,1.839,9.564-3.361,9.564-3.361s-7.175,5.056-6.075,6.605
	c1.1,1.55,8.034-4.186,8.034-4.186s-5.6,5.759-3.868,7.245c1.732,1.487,7.011-4.923,7.011-4.923s5.103,3.169,9.103-1.263
	c0,0,19.815,1.115,31.678-0.321c11.862-1.436,24.854-9.889,31.248-20.412c2.741-4.511,6.396-20.935-7.126-18.685
	c-6.05,1.006-23.527,17.528-28.021,19.341C169.579,169.201,144.416,175.03,144.416,175.03z"/>
<path fill="#18AF8D" d="M148.042,172.256c-2.052,1.003-1.31,14.329,2.533,17.53c2.497,2.08,27.254,0,32.069-1.605
	c7.582-2.528,20.878-8.749,28.778-22.873c7.9-14.125,0.407-24.821-11.143-16.964c-8.163,5.554-25.095,16.99-26.699,17.863
	C171.976,167.081,149.963,171.317,148.042,172.256z"/>
<path fill="#3D7966" d="M188.342,219.211c-3.933-0.222-68.726,26.41-70.303,26.175s-13.599-13.124-15.923-11.118
	c-2.323,2.006,11.821,31.11,14.188,31.592c2.367,0.482,102.566-9.94,106.735-11.325
	C227.209,253.151,199.701,219.851,188.342,219.211z"/>
<path fill="#18AF8D" d="M207.38,144.119c-8.797,4.036-23.447,26.701-28.688,47.671c-5.241,20.97-4.015,27.419,10.056,38.231
	c18.557,14.259,18.971,21.735,29.191,23.955c12.804,2.782,21.154-0.305,26.479-4.711c10.133-8.386,1.781-75.647-9.085-94.5
	C228.59,143.068,216.464,139.951,207.38,144.119z"/>
<path opacity="0.8" fill="#1B9376" d="M194.578,157.367c-2.35,2.568-4.42,5.387-6.255,8.378c0.418-1.245,0.781-2.507,1.079-3.726
	c0.023-0.095-0.12-0.154-0.166-0.063c-1.174,2.292-2.28,4.893-2.951,7.385c-6.068,11.488-8.979,25.032-9.978,37.355
	c-0.012,0.15,0.232,0.17,0.266,0.028c2.163-8.878,3.61-17.875,6.554-26.565c2.762-8.153,6.648-15.6,11.746-22.582
	C194.995,157.41,194.715,157.217,194.578,157.367z"/>
<path fill="#FBD7B5" d="M223.692,137.186c-0.553,2.772-3.148,8.762-6.369,14.001c-3.346,5.429-7.37,10.041-10.517,9.412
	c-3.041-0.596-3.819-5.182-3.811-9.681c-0.006-4.628,0.804-9.158,0.804-9.158L223.692,137.186z"/>
<path fill="#CC9C5E" d="M223.692,137.186c-0.553,2.772-3.148,8.762-6.369,14.001c-4.83,1.084-9.831,1.161-14.328-0.268
	c-0.006-4.628,0.804-9.158,0.804-9.158L223.692,137.186z"/>
<path fill="#FBD7B5" d="M229.216,45.145c24.453,20.754,22.452,69.904,8.557,86.021s-66.285,26.665-84.715,3.12
	c-5.193-6.635-1.588-21.304-2.735-25.853c-1.147-4.549-17.182-45.831,8.925-63.375C184.536,28.064,216.591,34.43,229.216,45.145z"/>
<path fill="#28160A" d="M237.968,91.75c-14.997,0.163-20.734-19.605-19.638-28.695c0,0-17.603,12.675-21.409-10.249
	c0,0-1.895,14.259-8.429,15.166c-6.534,0.907-11.317-11.73-11.317-11.73s-2.695,20.411-11.332,20.279
	c-10.519-0.161-12.09-20.365-12.09-20.365s-2.261,17.289-10.478,17.126c-8.218-0.163-6.521-24.71-2.424-31.232
	c4.097-6.522,13.407-7.758,13.407-7.758s14.848-12.446,35.962-16.286c21.114-3.84,38.503,1.031,38.503,1.031
	s-2.182-10.066,3.601-12.91c5.783-2.844,2.168,12.463,2.168,12.463s8.626-4.889,10.878-1.661c2.252,3.227-8.214,5.04-8.214,5.04
	s16.317,6.939,20.593,15.413c4.276,8.474-3.743,59.085-9.017,61.539C243.456,101.375,237.968,91.75,237.968,91.75z"/>
<path fill="#28160A" d="M239.865,91.212c-3.813,0.491-7.429,0.559-10.985-1.164c-3.17-1.536-5.661-4.13-7.425-7.147
	c-4.027-6.888-3.489-14.686-2.913-22.32c0.012-0.159-0.238-0.19-0.276-0.037c-1.936,7.876-1.766,17.132,2.928,24.044
	c3.916,5.765,11.844,9.594,18.729,7.055C240.135,91.565,240.128,91.179,239.865,91.212z"/>
<path fill="#28160A" d="M233.604,20.803c-6.243-3.436-13.781-5.545-20.811-6.489c-7.761-1.042-15.6-0.384-23.221,1.31
	c-12.978,2.884-26.867,8.431-35.322,19.15c-0.066,0.084,0.046,0.205,0.121,0.121c9.125-10.082,22.088-15.168,35.09-18.096
	c7.379-1.662,15.004-2.358,22.537-1.463c7.545,0.896,14.292,3.495,21.417,5.912C233.679,21.336,233.844,20.935,233.604,20.803z"/>
<path fill="#FBD7B5" d="M237.854,93.53c0,0,11.682-14.093,19.748-9.526c8.066,4.567,7.322,21.66-5.679,29.178
	c-7.7,4.453-12.887,1.205-12.887,1.205L237.854,93.53z"/>
<path fill="#CC9C5E" d="M257.444,89.806c0.155-0.046,0.242,0.178,0.088,0.238c-9.064,3.544-11.48,13.13-14.163,21.436
	c-0.085,0.262-0.52,0.174-0.525-0.091C242.68,101.86,248.086,92.59,257.444,89.806z"/>
<path fill="#CC9C5E" d="M174.692,116.102c3.068,0.019,4.618-2.676,4.939-6.19c0.39-4.268-1.638-8.742-3.302-12.572
	c-0.106-0.252-0.336-0.064-0.25,0.191c1.514,4.475,0.205,8.883-1.927,11.001c-1.18,1.166-2.634,2.027-2.921,3.796
	C170.883,114.434,172.447,116.088,174.692,116.102z"/>
<path fill="#28160A" d="M169.218,120.895c4.004,1.648,8.558,2.168,12.522,0.012c3.956-2.151,5.531-6.204,6.28-10.415
	c0.022-0.125,0.23-0.111,0.226,0.019c-0.146,4.585-1.57,9.828-5.833,12.26c-4.364,2.489-10.441,0.97-13.359-1.54
	C168.772,120.988,168.87,120.751,169.218,120.895z"/>
<path fill="#28160A" d="M191.601,78.393c7.599-2.672,13.412,2.677,14.746,5.795c0.476,1.113-0.23,1.424-0.672,1.135
	c-2.194-1.435-5.757-3.529-13.552-2.62C189.86,82.967,188.739,79.4,191.601,78.393z"/>
<path fill="#28160A" d="M162.607,81.13c-8.231,0.04-11.29,6.556-11.377,8.9c-0.045,1.198,0.604,1.161,1.009,0.829
	c2.18-1.784,4.884-4.764,11.338-5.542C165.815,85.047,165.61,81.115,162.607,81.13z"/>
<ellipse transform="matrix(0.9686 -0.2485 0.2485 0.9686 -20.2537 43.4123)" fill="#28160A" cx="161.811" cy="101.922" rx="4.472" ry="2.539"/>
<ellipse transform="matrix(0.9861 0.1663 -0.1663 0.9861 19.2266 -31.3371)" fill="#28160A" cx="196.721" cy="99.13" rx="4.961" ry="3.056"/>
<path fill="#FBD7B5" d="M233.506,171.628c-3.088,18.197-15.439,33.233-24.549,40.315c-7.674,5.958-20.562,7.706-29.385,8.172
	c1.949-3.623-4.485-8.242-6.836-9.773c6-3.124,19.915-12.841,23.96-16.639c5.718-5.375,11.408-22.005,18.765-31.787
	C223.75,150.888,236,156.932,233.506,171.628z"/>
<path opacity="0.8" fill="#1B9376" d="M230.634,164.873c-4.35-3.804-12.479-6.339-17.109-1.646
	c-0.055,0.056,0.021,0.146,0.081,0.092c5.233-4.678,13.578-1.472,17.84,2.973c4.431,4.62,5.613,11.317,4.59,17.467
	c-0.013,0.077,0.117,0.104,0.135,0.028C237.796,176.986,236.019,169.582,230.634,164.873z"/>
<path fill="#FBD7B5" d="M138.441,174.81c-3.14-0.82-6.564-1.718-8.963-1.492s-5.822,1.628-5.131,2.974
	c0.69,1.346,6.685,1.854,7.178,2.21c0.493,0.356,3.841,8.001,9.43,7.686C146.542,185.873,141.108,175.507,138.441,174.81z"/>
<path fill="#CC9C5E" d="M143.258,184.749c-5.134,0.938-8.599-1.3-10.563-5.906c0.005-0.055-0.016-0.1-0.06-0.136
	c-0.01-0.023-0.02-0.044-0.03-0.067c-0.036-0.088-2.675-0.525-3.932-0.691c-0.032-0.004-0.035,0.045-0.007,0.054
	c1.248,0.399,2.511,0.701,3.785,1.003c0.794,4.811,6.436,7.765,10.924,6.164C143.641,185.076,143.535,184.698,143.258,184.749z"/>
<g>
	<g>
		<g>
			<path fill="#CB844A" d="M176.742,229.134c-1.289-0.018-2.585,0.042-3.877,0.117c-2.117,0.112-4.239,0.274-6.354,0.228
				L64.41,103.082l1.29-0.76l3.724-2.195L176.742,229.134z"/>
			<path fill="#CB844A" d="M197.475,253.665l-2.053,1.655l-4.917,3.967l-24.958-30.899c0.825-0.03,1.656-0.052,2.481-0.082
				c1.397-0.05,2.837-0.11,4.155-0.514c0.499-0.157,0.982-0.36,1.443-0.636c0.4-0.247,0.762-0.534,1.077-0.862L197.475,253.665z"/>
			<path fill="#B5713E" d="M65.7,102.322c35.723,42.303,71.445,84.613,107.166,126.929c-2.117,0.112-4.239,0.274-6.354,0.228
				L64.41,103.082L65.7,102.322z"/>
			<path fill="#B5713E" d="M195.422,255.32l-4.917,3.967l-24.958-30.899c0.825-0.03,1.656-0.052,2.481-0.082
				c1.397-0.05,2.837-0.11,4.155-0.514C179.927,236.966,187.679,246.139,195.422,255.32z"/>
		</g>
		<g>
			<path fill="#543216" d="M64.858,120.374c0.14-1.692,0.316-3.381,0.51-5.068c0.374-3.248,0.766-6.471,0.453-9.74
				c-0.031-0.328-0.471-0.254-0.533,0.017c-0.73,3.215-1.366,6.446-1.973,9.687c-0.303,1.614-0.604,3.23-0.819,4.859
				c-0.205,1.554-0.319,3.098,0.452,4.522c0.158,0.291,0.624,0.417,0.828,0.086C64.612,123.38,64.73,121.929,64.858,120.374z"/>
			<path fill="#543216" d="M60.931,206.4c-0.067-0.893-0.449-1.799-0.748-2.636c-0.311-0.872-0.646-1.735-0.938-2.614
				c-0.591-1.78-1.111-3.592-1.471-5.434c-0.357-1.822-0.638-3.654-0.775-5.506c-0.034-0.462-0.057-0.924-0.073-1.387
				c0.111-1.26,0.222-2.52,0.305-3.784c0.228-3.442,0.785-6.836,1.118-10.266c0.089-0.916-1.216-1.193-1.423-0.269
				c-0.76,3.385-1.144,6.867-1.681,10.294c-0.229,1.461-0.393,2.927-0.522,4.399c-0.094,0.375-0.189,0.749-0.281,1.123
				c-0.502,2.047-1.105,4.07-1.803,6.058c-0.674,1.921-1.433,3.803-2.251,5.667c-0.847,1.929-1.915,3.814-2.545,5.823
				c-0.26,0.828,1.02,1.409,1.521,0.738c1.25-1.676,2.024-3.764,2.755-5.712c0.615-1.639,1.154-3.312,1.632-4.999
				c-0.113,1.615-0.084,3.25,0.086,4.854c0.203,1.921,0.532,3.882,1.354,5.64c0.217,0.463,1.059,0.547,1.118-0.087
				c0.177-1.886-0.135-3.73-0.345-5.601c-0.215-1.912-0.349-3.798-0.312-5.724c0.01-0.515,0.035-1.03,0.064-1.545
				c0.007-0.004,0.012-0.01,0.019-0.014c0.027,0.23,0.052,0.46,0.086,0.689c0.287,1.92,0.694,3.831,1.28,5.682
				c0.291,0.918,0.604,1.836,1.002,2.714c0.399,0.879,0.862,1.861,1.576,2.529C60.17,207.493,60.979,207.041,60.931,206.4z"/>
			<circle fill="#CE5617" cx="66.094" cy="101.121" r="6.581"/>
			<circle fill="#CE5617" cx="56.292" cy="184.245" r="3.284"/>
			<circle fill="#CE5617" cx="55.147" cy="193.884" r="3.284"/>
			<g>
				<path fill="#855224" d="M68.662,122.108c-0.309,1.87-0.619,3.741-0.928,5.611c-2.384-0.341-6.677-0.106-8.719-1.392
					c-1.532-0.965-1.634-3.956-1.721-5.553C58.222,120.778,68.663,122.096,68.662,122.108z"/>
				<path fill="#855224" d="M51.322,178.385c0.309-1.87,0.619-3.741,0.928-5.611c2.384,0.341,6.677,0.106,8.719,1.392
					c1.532,0.965,1.634,3.956,1.721,5.553C61.762,179.714,51.321,178.396,51.322,178.385z"/>
				<g>
					<path fill="#CE5617" d="M90.806,154.093c-0.257,1.92-0.734,3.81-1.418,5.613c-0.189,0.499-0.399,0.997-0.623,1.485
						c-0.362,0.777-0.758,1.536-1.202,2.276c-0.574,0.95-1.21,1.864-1.904,2.723c-0.165,0.199-0.323,0.399-0.501,0.59
						c-0.404,0.485-0.841,0.951-1.292,1.402c-1.884,1.903-4.07,3.515-6.445,4.797c-0.443,0.242-0.892,0.47-1.354,0.681
						c-0.888,0.434-1.8,0.816-2.729,1.145c-1.094,0.398-2.203,0.731-3.326,0.996c-7.152,1.674-14.775,0.79-21.633-1.838
						c-1.269-0.485-2.517-1.032-3.737-1.649c-1.426-0.71-2.807-1.509-4.128-2.396c-0.93-0.623-1.827-1.292-2.691-2.002
						c-1.647-1.36-3.156-2.865-4.483-4.538c-0.007-0.001-0.007-0.001-0.007-0.001c-0.197-0.258-0.394-0.509-0.584-0.767
						c-0.227-0.312-0.454-0.631-0.673-0.949c-1.268-1.891-2.3-3.966-3.028-6.125c-0.167-0.479-0.311-0.962-0.449-1.445
						c-0.527-1.944-0.817-3.942-0.826-5.947c0.002-0.44,0.012-0.878,0.035-1.316c0.057-0.895,0.164-1.793,0.335-2.676
						c0.204-1.06,0.499-2.097,0.869-3.097c0.154-0.438,0.328-0.867,0.523-1.294c0.866-1.958,2.029-3.784,3.425-5.434
						c0.387-0.465,0.794-0.913,1.214-1.345c1.833-1.894,3.977-3.524,6.304-4.826c0.881-0.5,1.792-0.946,2.728-1.347
						c0.935-0.4,1.895-0.755,2.863-1.051c4.214-1.286,8.659-1.676,13.043-1.402c2.994,0.188,6.045,0.598,9.023,1.288
						c4.406,1.033,8.627,2.675,12.236,5.133c0.653,0.45,1.289,0.919,1.893,1.422c2.04,1.668,3.824,3.655,5.248,5.987
						c0.297,0.478,0.577,0.968,0.827,1.477c0.446,0.839,0.838,1.723,1.181,2.653c0.378,1.012,0.682,2.046,0.912,3.094
						c0.115,0.495,0.207,0.995,0.284,1.5c0.296,1.876,0.372,3.78,0.234,5.677C90.924,153.096,90.872,153.595,90.806,154.093z"/>
					<g opacity="0.6">
						<path fill="#573618" d="M82.268,132.199c-4.323-0.232-8.647-0.536-12.971-0.825c-2.85-0.187-5.685-0.38-8.524-0.609
							c-2.559-0.215-5.115-0.458-7.67-0.773c-0.805-0.098-1.601-0.202-2.404-0.314c-1.031-0.143-2.06-0.293-3.089-0.45
							c-2.379-0.348-4.749-0.716-7.128-1.07c0.881-0.5,1.792-0.946,2.728-1.347c2.654,0.34,5.306,0.694,7.96,1.041
							c0.612,0.078,1.217,0.155,1.829,0.233c0.811,0.106,1.63,0.205,2.441,0.311c2.312,0.304,4.615,0.615,6.921,0.905
							c3.06,0.382,6.125,0.729,9.207,0.969c2.933,0.225,5.871,0.392,8.808,0.509C81.028,131.227,81.664,131.697,82.268,132.199z"/>
						<path fill="#573618" d="M88.344,139.663c-0.416-0.022-0.84-0.037-1.256-0.051c-6.182-0.244-12.352-0.682-18.531-1.092
							c-4.117-0.275-8.22-0.549-12.308-0.958c-2.099-0.203-4.193-0.442-6.29-0.738c-1.031-0.143-2.053-0.292-3.082-0.449
							c-2.585-0.376-5.168-0.781-7.752-1.164c-2.052-0.306-4.104-0.606-6.159-0.883c0.387-0.465,0.794-0.913,1.214-1.345
							c2.168,0.225,4.333,0.485,6.497,0.753c2.491,0.309,4.981,0.639,7.47,0.962c1.373,0.178,2.738,0.363,4.112,0.534
							c1.594,0.201,3.187,0.41,4.781,0.618c4.587,0.605,9.168,1.21,13.788,1.566c5.55,0.431,11.124,0.634,16.69,0.771
							C87.813,138.664,88.094,139.154,88.344,139.663z"/>
						<path fill="#573618" d="M90.722,146.91c-1.458-0.05-2.917-0.1-4.374-0.158c-6.183-0.237-12.352-0.675-18.532-1.084
							c-4.353-0.293-8.685-0.583-13.015-1.032c-1.863-0.186-3.721-0.407-5.583-0.672c-1.876-0.267-3.758-0.541-5.631-0.829
							c-3.067-0.455-6.14-0.932-9.209-1.365c-1.13-0.16-2.253-0.313-3.384-0.459c-0.655-0.082-1.317-0.165-1.978-0.256
							c0.154-0.438,0.328-0.867,0.523-1.294c1.18,0.093,2.358,0.208,3.535,0.33c0.706,0.073,1.405,0.146,2.111,0.226
							c3.001,0.333,5.996,0.715,8.991,1.105c2.447,0.318,4.894,0.637,7.342,0.948c1.131,0.146,2.262,0.292,3.393,0.445
							c5.043,0.667,10.09,1.356,15.175,1.746c6.766,0.521,13.56,0.713,20.351,0.848C90.552,145.905,90.644,146.405,90.722,146.91z"
							/>
						<path fill="#573618" d="M90.806,154.093c-1.731-0.064-3.469-0.129-5.2-0.193c-6.183-0.237-12.352-0.682-18.531-1.091
							c-3.581-0.234-7.146-0.474-10.71-0.8c-2.629-0.236-5.259-0.523-7.888-0.897c-1.954-0.275-3.9-0.563-5.844-0.858
							c-3.542-0.533-7.076-1.079-10.624-1.563c-0.583-0.082-1.173-0.158-1.757-0.232c-0.825-0.107-1.651-0.207-2.476-0.314
							c0.002-0.44,0.012-0.878,0.035-1.316c1.51,0.113,3.009,0.254,4.514,0.41l0.007,0.001c3.452,0.358,6.89,0.786,10.327,1.229
							c2.71,0.353,5.413,0.712,8.117,1.05c1.623,0.204,3.245,0.416,4.866,0.634c4.552,0.602,9.111,1.197,13.703,1.55
							c7.188,0.558,14.4,0.743,21.609,0.884C90.924,153.096,90.872,153.595,90.806,154.093z"/>
						<path fill="#573618" d="M89.388,159.706c-0.189,0.499-0.399,0.997-0.623,1.485c-1.3-0.048-2.6-0.096-3.9-0.145
							c-6.183-0.237-12.352-0.682-18.531-1.092c-1.217-0.083-2.428-0.158-3.644-0.248c-5.004-0.346-9.98-0.746-14.954-1.449
							c-1.158-0.163-2.316-0.334-3.473-0.504c-4.154-0.618-8.303-1.272-12.461-1.847l-0.007-0.001
							c-0.76-0.108-1.521-0.208-2.282-0.309c-0.156-0.023-0.306-0.039-0.462-0.062c-0.167-0.479-0.311-0.962-0.449-1.445
							c1,0.089,1.992,0.185,2.991,0.288l0.05,0.005c3.973,0.412,7.937,0.916,11.899,1.435c2.163,0.282,4.331,0.571,6.495,0.846
							c3.573,0.45,7.14,0.949,10.715,1.377c2.613,0.321,5.229,0.607,7.854,0.807C75.515,159.379,82.452,159.571,89.388,159.706z"/>
						<path fill="#573618" d="M85.158,166.78c-0.404,0.485-0.841,0.951-1.292,1.402c-6.096-0.243-12.179-0.678-18.273-1.079
							c-5.005-0.331-9.988-0.668-14.961-1.241c-1.212-0.133-2.421-0.287-3.637-0.456c-4.179-0.584-8.342-1.247-12.518-1.86
							c-0.376-0.061-0.76-0.115-1.136-0.168c-0.007-0.001-0.007-0.001-0.007-0.001c-0.197-0.258-0.394-0.509-0.584-0.767
							c-0.227-0.312-0.454-0.631-0.673-0.949c0.492,0.051,0.984,0.102,1.476,0.16c4.902,0.559,9.793,1.231,14.696,1.855
							c0.348,0.051,0.697,0.094,1.046,0.137c6.185,0.778,12.346,1.705,18.569,2.184C73.615,166.442,79.39,166.644,85.158,166.78z"/>
						<path fill="#573618" d="M76.068,173.66c-0.888,0.434-1.8,0.816-2.729,1.145c-2.83-0.171-5.657-0.37-8.486-0.555
							c-6.229-0.415-12.415-0.833-18.597-1.704c-0.54-0.078-1.073-0.154-1.613-0.232c-1.426-0.71-2.807-1.509-4.128-2.396
							c2.682,0.343,5.356,0.699,8.04,1.035c6.184,0.785,12.346,1.712,18.568,2.191C70.099,173.374,73.081,173.538,76.068,173.66z"/>
					</g>
				</g>
			</g>
		</g>
	</g>
</g>
<path fill="#FBD7B5" d="M187.066,219.445c-6.618,1.02-13.821,1.955-13.821,1.955s-2.379,1.422-4.161,2.286
	c-1.795,0.852-8.251-0.717-9.111-0.651c-0.871,0.078-7.637,2.246-8.106,1.037c-0.169-0.434,0.356-1.028,1.093-1.588
	c-1.198,0.364-2.339,0.609-2.555,0.152c-0.228-0.446,0.015-0.942,0.506-1.441c-1.034,0.256-1.882,0.287-2.063-0.241
	c-0.206-0.599,0.529-1.406,1.547-2.193c-0.542-0.066-0.863-0.346-0.809-0.9c0.186-1.639,5.368-4.382,6.754-4.853
	c1.374-0.495,7.085-0.616,7.085-0.71c-0.095-0.093-5.302-1.556-4.781-2.514c1.24-2.272,8.691-0.159,11.356,0.148
	c0.778,0.087,4.827-0.899,8.497-2.816C181.956,209.372,189.941,214.12,187.066,219.445z"/>
<path fill="#CC9C5E" d="M161.627,217.058c-3.765,0.348-7.817,1.67-10.742,4.138c-0.027,0.023,0.008,0.065,0.037,0.048
	c3.499-1.978,6.719-3.431,10.728-4.011C161.749,217.219,161.727,217.049,161.627,217.058z"/>
<path fill="#CC9C5E" d="M161.389,219.366c-2.908,0.3-6.113,1.315-8.477,3.081c-0.06,0.045-0.01,0.133,0.059,0.101
	c2.807-1.334,5.377-2.427,8.432-3.074C161.463,219.461,161.451,219.36,161.389,219.366z"/>
<path fill="#CC9C5E" d="M159.761,214.948c-3.36,0.016-6.884,1.129-9.227,3.645c-0.021,0.022,0.006,0.06,0.033,0.043
	c2.903-1.851,5.714-3.212,9.194-3.537C159.856,215.09,159.86,214.947,159.761,214.948z"/>
<path fill="#18AF8D" d="M173.708,205.783c-1.073,2.518,4.741,20.501,10.363,18.96c5.585-1.531,26.291-6.876,31.298-11.463
	c5.007-4.586,18.327-27.54,19.961-36.864c2.33-13.298-3.01-24.547-13.287-21.027c-11.177,3.828-20.531,29.902-23.9,34.256
	C194.774,193.999,175.43,201.745,173.708,205.783z"/>
<path opacity="0.8" fill="#1B9376" d="M210.037,168.095c0.103-0.229-0.194-0.41-0.339-0.198c-2.225,3.245-3.938,6.911-5.714,10.414
	c-1.774,3.498-3.799,6.935-5.388,10.518c-0.734,0.522-1.328,1.194-1.666,2.074c-1.501,0.461-2.977,1.137-4.468,2.002
	c-4.685,2.717-9.49,5.528-13.86,8.727c-0.086,0.063,0.016,0.186,0.104,0.145c4.387-2.035,8.567-4.621,12.769-7.011
	c1.97-1.121,3.961-2.304,6.141-2.97c2.435-0.744,4.865-0.583,7.362-0.706c0.268-0.013,0.392-0.439,0.087-0.504
	c-2.488-0.533-4.762-0.487-6.959,0.016c0.69-0.761,1.418-1.42,2.476-1.825c1.463-0.561,3.059-0.715,4.533-1.257
	c0.226-0.083,0.215-0.469-0.061-0.45c-1.651,0.109-3.745,0.369-5.436,1.168c2.09-2.703,3.601-5.911,5.08-8.958
	C206.497,175.571,208.346,171.851,210.037,168.095z"/>
<path opacity="0.8" fill="#1B9376" d="M234.651,187.448c-2.83,3.185-4.903,7.041-7.126,10.654
	c-2.633,4.279-9.639,12.536-14.076,15.168c-8.68,5.148-21.408,7.889-30.74,11.476c-0.115,0.044-0.069,0.198,0.05,0.182
	c5.265-0.738,13.001-2.981,17.958-4.852c4.568-1.724,9.528-3.487,13.679-6.083c3.636-2.275,10.255-9.552,12.473-13.107
	c0.506-0.812,1.006-1.627,1.51-2.44c1.904-1.431,3.637-3.204,5.397-4.806c0.135-0.123-0.045-0.366-0.199-0.257
	c-1.314,0.934-2.69,1.933-3.941,3.031c1.788-2.898,3.573-5.797,5.374-8.686C235.147,187.508,234.826,187.251,234.651,187.448z"/>
<image overflow="visible" width="3840" height="1080" xlink:href="319BA83B.jpg"  transform="matrix(0.3691 0 0 0.3691 -715.3535 -406.4403)">
</image>
<ellipse transform="matrix(0.9768 -0.2141 0.2141 0.9768 -19.9431 48.0359)" opacity="0.6" fill="#F1B4BD" cx="211.828" cy="116.102" rx="5.767" ry="5.004"/>
<path fill="#2F5E4F" d="M122.382,265.395l-7.133,1.318c0,0-14.596-26.917-15.015-30.764c-0.767-7.047,15.072,4.83,16.624,9.146
	c0.036,0.099,0.064,0.196,0.085,0.291"/>
</svg>
