<?xml version="1.0" encoding="utf-8"?>
<!-- Generator: Adobe Illustrator 17.0.0, SVG Export Plug-In . SVG Version: 6.00 Build 0)  -->
<!DOCTYPE svg PUBLIC "-//W3C//DTD SVG 1.1//EN" "http://www.w3.org/Graphics/SVG/1.1/DTD/svg11.dtd">
<svg version="1.1" id="Capa_1" xmlns="http://www.w3.org/2000/svg" xmlns:xlink="http://www.w3.org/1999/xlink" x="0px" y="0px"
	 width="44.589px" height="35.164px" viewBox="251.301 405.886 44.589 35.164"
	 enable-background="new 251.301 405.886 44.589 35.164" xml:space="preserve">
<path fill="#FF7675" d="M295.89,435.05c0,3.314-2.686,6-6,6h-32.589c-3.314,0-6-2.686-6-6v-23.164c0-3.314,2.686-6,6-6h32.589
	c3.314,0,6,2.686,6,6V435.05z"/>
<g>
	<g id="Menu">
		<path fill="#FFFFFF" d="M264.917,434.072l19.283-19.283c0.355-0.355,0.211-1.074-0.32-1.606c-0.531-0.531-1.251-0.675-1.606-0.32
			l-19.283,19.283c-0.355,0.355-0.211,1.074,0.32,1.606C263.843,434.284,264.562,434.427,264.917,434.072z"/>
		<path fill="#FFFFFF" d="M284.2,432.147l-19.283-19.283c-0.355-0.355-1.074-0.211-1.606,0.32s-0.675,1.251-0.32,1.606
			l19.283,19.283c0.355,0.355,1.074,0.211,1.606-0.32S284.555,432.502,284.2,432.147z"/>
	</g>
</g>
<path fill="#FF7675" d="M307.14,372.05c0,3.314-2.686,6-6,6h-32.589c-3.314,0-6-2.686-6-6v-23.164c0-3.314,2.686-6,6-6h32.589
	c3.314,0,6,2.686,6,6V372.05z"/>
<g>
	<g id="Menu_1_">
		<path fill="#FFFFFF" d="M271.21,355.475h27.271c0.502,0,0.909-0.61,0.909-1.362c0-0.752-0.407-1.362-0.909-1.362H271.21
			c-0.502,0-0.909,0.61-0.909,1.362C270.301,354.865,270.708,355.475,271.21,355.475z"/>
		<path fill="#FFFFFF" d="M298.481,359.106H271.21c-0.502,0-0.909,0.61-0.909,1.362c0,0.751,0.407,1.362,0.909,1.362h27.271
			c0.502,0,0.909-0.61,0.909-1.362C299.39,359.716,298.983,359.106,298.481,359.106z"/>
		<path fill="#FFFFFF" d="M298.481,365.46H271.21c-0.502,0-0.909,0.61-0.909,1.362c0,0.752,0.407,1.362,0.909,1.362h27.271
			c0.502,0,0.909-0.61,0.909-1.362C299.39,366.07,298.983,365.46,298.481,365.46z"/>
	</g>
</g>
</svg>
