<?xml version="1.0" encoding="utf-8"?>
<!-- Generator: Adobe Illustrator 17.0.0, SVG Export Plug-In . SVG Version: 6.00 Build 0)  -->
<!DOCTYPE svg PUBLIC "-//W3C//DTD SVG 1.1//EN" "http://www.w3.org/Graphics/SVG/1.1/DTD/svg11.dtd">
<svg version="1.1" id="Capa_1" xmlns="http://www.w3.org/2000/svg" xmlns:xlink="http://www.w3.org/1999/xlink" x="0px" y="0px"
	 width="95px" height="95.002px" viewBox="-187.036 317.948 95 95.002" enable-background="new -187.036 317.948 95 95.002"
	 xml:space="preserve">
<g>
	<g>
		<path fill="#FFFFFF" d="M-96.781,355.95h-19.001v-9.5c0-2.85-1.9-4.751-4.751-4.751h-14.25v-4.751l19.001-7.125l-19.001-7.125
			c0-2.85-1.9-4.751-4.751-4.751s-4.751,1.9-4.751,4.751v19.001h-14.25c-2.85,0-4.751,1.9-4.751,4.751v9.5h-19.001
			c-2.85,0-4.751,1.9-4.751,4.751v52.25h38v-19.001c0-2.85,1.9-4.751,4.751-4.751h9.5c2.85,0,4.751,1.9,4.751,4.751v19.001h38
			v-52.251C-92.032,357.85-93.932,355.95-96.781,355.95z M-168.031,403.449h-9.5v-9.5h9.5V403.449z M-168.031,384.45h-9.5v-9.5h9.5
			V384.45z M-139.531,370.2c-5.225,0-9.499-4.275-9.499-9.499c0-5.225,4.275-9.5,9.499-9.5c5.225,0,9.5,4.275,9.5,9.5
			C-130.032,365.925-134.307,370.2-139.531,370.2z M-101.532,403.449h-9.499v-9.5h9.499V403.449z M-101.532,384.45h-9.499v-9.5
			h9.499V384.45z"/>
	</g>
</g>
</svg>
