<?xml version="1.0" encoding="utf-8"?>
<!-- Generator: Adobe Illustrator 17.0.0, SVG Export Plug-In . SVG Version: 6.00 Build 0)  -->
<!DOCTYPE svg PUBLIC "-//W3C//DTD SVG 1.1//EN" "http://www.w3.org/Graphics/SVG/1.1/DTD/svg11.dtd">
<svg version="1.1" id="Layer_1" xmlns="http://www.w3.org/2000/svg" xmlns:xlink="http://www.w3.org/1999/xlink" x="0px" y="0px"
	 width="95px" height="95px" viewBox="135.529 208.501 95 95" enable-background="new 135.529 208.501 95 95" xml:space="preserve">
<g>
	<path fill="#FFFFFF" d="M229.659,228.667l-19.297-19.297c-1.158-1.16-3.039-1.16-4.197,0l-21.992,21.992
		c-0.362,0.362-0.362,0.95,0,1.312l22.182,22.182c0.362,0.362,0.95,0.362,1.312,0l2.909-2.909c0.362-0.362,0.362-0.95,0-1.312
		l-5.896-5.896c-1.16-1.158-1.16-3.039,0-4.197c1.158-1.16,3.039-1.16,4.197,0l5.896,5.896c0.362,0.362,0.95,0.362,1.312,0
		l3.397-3.397c0.362-0.362,0.362-0.95,0-1.312l-5.896-5.896c-1.16-1.158-1.16-3.039,0-4.197c1.158-1.16,3.039-1.16,4.197,0
		l5.896,5.896c0.362,0.362,0.95,0.362,1.312,0l4.667-4.667C230.819,231.707,230.819,229.825,229.659,228.667L229.659,228.667z"/>
	<path fill="#FFFFFF" d="M159.702,257.144c-0.362-0.362-0.95-0.362-1.312,0l-21.992,21.992c-1.16,1.158-1.16,3.039,0,4.197
		l19.297,19.297c1.153,1.157,3.037,1.164,4.197,0l4.667-4.667c0.362-0.362,0.362-0.95,0-1.312l-5.896-5.896
		c-1.16-1.158-1.16-3.039,0-4.197c1.158-1.16,3.039-1.16,4.197,0l5.896,5.896c0.362,0.362,0.95,0.362,1.312,0l3.397-3.397
		c0.362-0.362,0.362-0.95,0-1.312l-5.896-5.896c-1.16-1.158-1.16-3.039,0-4.197c1.158-1.16,3.039-1.16,4.197,0l5.896,5.896
		c0.362,0.362,0.95,0.362,1.312,0l2.909-2.909c0.362-0.362,0.362-0.95,0-1.312L159.702,257.144z"/>
	<path fill="#FFFFFF" d="M217.531,276.288c0.631-0.241,0.81-1.047,0.332-1.525l-62.424-62.424c-1.158-1.16-3.039-1.16-4.197,0
		l-11.875,11.875c-1.16,1.158-1.16,3.039,0,4.197l62.424,62.424c0.478,0.478,1.284,0.299,1.525-0.332
		C205.819,283.954,210.982,278.791,217.531,276.288z"/>
	<path fill="#FFFFFF" d="M223.344,281.703c-0.133-0.487-0.63-0.778-1.119-0.656l-0.396,0.099
		c-6.739,1.683-11.972,6.915-13.654,13.654l-0.099,0.396c-0.122,0.489,0.17,0.986,0.656,1.119l15.078,4.112
		c2.217,0.606,4.247-1.44,3.646-3.646L223.344,281.703z"/>
</g>
</svg>
