<?xml version="1.0" encoding="utf-8"?>
<!-- Generator: Adobe Illustrator 17.0.0, SVG Export Plug-In . SVG Version: 6.00 Build 0)  -->
<!DOCTYPE svg PUBLIC "-//W3C//DTD SVG 1.1//EN" "http://www.w3.org/Graphics/SVG/1.1/DTD/svg11.dtd">
<svg version="1.1" id="Capa_1" xmlns="http://www.w3.org/2000/svg" xmlns:xlink="http://www.w3.org/1999/xlink" x="0px" y="0px"
	 width="86.477px" height="95px" viewBox="212.762 208.5 86.477 95" enable-background="new 212.762 208.5 86.477 95"
	 xml:space="preserve">
<g>
	<path fill="#FFFFFF" d="M282.166,301.923c6.954-4.201,9.905-15.299,5.861-22.492c-3.352-5.963-10.174-6.909-15.421-2.463
		c-6.775,5.74-8.2,17.805-2.398,23.701C273.432,303.946,278.07,304.397,282.166,301.923L282.166,301.923z"/>
	<path fill="#FFFFFF" d="M239.395,276.967c-5.428-4.6-12.536-3.43-15.755,3.102c-4.616,9.439,1.945,23.431,11.581,23.431
		c2.523,0,4.809-1.04,6.572-2.832C247.582,294.785,246.181,282.717,239.395,276.967z"/>
	<path fill="#FFFFFF" d="M286.543,228.733c3.171-5.187,2.379-11.871-1.901-16.257c-5.402-5.535-14.109-5.24-19.187,0.571
		C274.525,215.113,282.089,220.4,286.543,228.733L286.543,228.733z"/>
	<path fill="#FFFFFF" d="M293.354,261.36l-8.246-3.372c-13.312,16.395-44.892,16.407-58.214,0l-8.246,3.372
		c-4.833,1.977-7.157,7.515-5.181,12.346c0.915,2.24,2.607,3.983,4.693,4.974c4.369-10.551,16.25-13.234,24.835-5.96
		c8.062,6.831,10.5,20.037,5.116,28.846c4.63,0.376,11.144,0.377,15.78,0c-5.43-8.885-2.877-22.074,5.116-28.846
		c8.59-7.278,20.47-4.584,24.835,5.96c2.086-0.99,3.778-2.733,4.693-4.973C300.511,268.875,298.187,263.337,293.354,261.36z"/>
	<path fill="#FFFFFF" d="M246.546,213.046c-5.078-5.81-13.786-6.104-19.187-0.57c-4.267,4.372-5.081,11.056-1.901,16.257
		C229.837,220.54,237.305,215.152,246.546,213.046z"/>
	<path fill="#FFFFFF" d="M278.209,226.444c-3.619-4.038-10.409-8.851-22.209-8.851c-11.8,0-18.59,4.813-22.209,8.851
		c-4.167,4.65-6.556,10.961-6.556,17.316c0,5.793,3.124,11.17,8.797,15.141c11.109,7.776,28.822,7.78,39.936,0
		c5.673-3.971,8.797-9.348,8.797-15.141C284.766,237.405,282.376,231.093,278.209,226.444L278.209,226.444z M249.863,235.498
		c-0.164,1.582-1.573,2.647-3.044,2.496c-1.458-0.148-2.632-1.411-2.498-3.045c0.165-1.593,1.634-2.772,3.314-2.455
		C248.999,232.776,249.986,233.993,249.863,235.498z M260.938,246.099l-2.969,2.969c-1.087,1.087-2.85,1.087-3.937,0l-2.969-2.969
		c-1.748-1.748-0.51-4.752,1.968-4.752h5.939C261.441,241.347,262.69,244.347,260.938,246.099z M267.679,235.498
		c-0.162,1.564-1.56,2.652-3.044,2.496c-1.581-0.161-2.651-1.574-2.498-3.044c0.162-1.595,1.638-2.773,3.314-2.457
		C266.931,232.8,267.817,234.15,267.679,235.498L267.679,235.498z"/>
</g>
</svg>
